<svg version="1.1" id="Layer_1" xmlns="http://www.w3.org/2000/svg" x="0" y="0" viewBox="0 0 141.9 69.8" xml:space="preserve"><style>.st0{fill:#fff}.st1{fill:#0a7ba3}</style><path class="st0" d="M40.6 27.7c-1.8 0-3.3-.6-4.4-1.7-1.3 1.1-3 1.7-4.9 1.7-1.9 0-3.4-.6-4.4-1.7-1.1-1.1-1.6-2.6-1.6-4.4 0-.2 0-.5.1-1l1-7.7c-2.1-1.7-3.1-3.7-3.1-5.9 0-1.7.6-3.1 1.8-4.1 1.1-1 2.5-1.4 4.1-1.4 3.5 0 5.5 2 5.5 5.4v.5c0 .2 0 .4-.1.6 0 .2-.1.4-.1.7l-.4 2.8c-.1.7-.2 1.4-.3 2.2l-.4 2.9c-.2 1.2-.3 2.1-.4 2.9-.1 1-.2 1.4-.2 1.5 0 .3 0 .4.1.5.8 0 1.1-2 1.2-2.6l2-16.1.8-.3c.9-.4 1.9-.6 3-.6 2.5 0 3.4 1.6 3.4 3v.5c-.8 6-1.3 9.6-1.5 11-.4 2.2-.6 3.8-.6 4.9v.3c.2 0 .5-.3.9-1 .6-1.1 1-2.5 1.4-4.1.7-3.7 1-6.9 1-9.5 0-1.2-.1-2.2-.3-3l-.6-1 .9-.6c1-.6 2.3-.9 3.7-.9 1.5 0 3.2.9 3.2 3.5 0 2.2-.3 5.3-1 9.7-.6 3.7-1.3 6.4-2.3 8.3-.5.8-1 1.6-1.6 2.3-1.5 1.5-3.4 2.4-5.9 2.4z"/><path class="st1" d="M48.2 3c1.1 0 1.7.7 1.7 2 0 2.1-.3 5.2-1 9.4-.5 3.5-1.2 6.1-2.2 7.8-.4.7-.9 1.4-1.4 2-1.1 1.3-2.7 2-4.7 2s-3.5-.9-4.3-2.6c-1.1 1.7-2.8 2.6-5 2.6-1.4 0-2.6-.4-3.4-1.3-.8-.8-1.2-1.9-1.2-3.3 0-.2 0-.5.1-.8l1.1-8.5C25.7 10.7 24.6 9 24.6 7c0-1.2.4-2.2 1.3-2.9.8-.7 1.9-1.1 3.1-1.1 2.6 0 4 1.3 4 3.9v.5c0 .1 0 .3-.1.5 0 .2-.1.4-.1.8-.1.3-.1.7-.2 1.1-.1.4-.1 1-.2 1.6-.1.6-.2 1.4-.3 2.2-.1.8-.2 1.8-.4 2.9-.2 1.1-.3 2.1-.4 2.9s-.2 1.4-.2 1.7c0 1.3.5 2 1.6 2 1.4 0 2.3-1.3 2.7-4L37.1 4c.7-.3 1.5-.5 2.4-.5 1.3 0 1.9.5 1.9 1.5v.4c-.8 5.9-1.3 9.5-1.5 10.9-.4 2.3-.6 4-.6 5.1 0 1.2.5 1.8 1.5 1.8.8 0 1.6-.6 2.3-1.8.7-1.2 1.2-2.7 1.5-4.5.7-3.8 1.1-7 1.1-9.8 0-1.3-.1-2.4-.3-3.3.7-.6 1.7-.8 2.8-.8m-20 6.6l.2-1.2c.1-.7.1-1.3.1-2s-.2-1-.7-1c-.4 0-.7.1-.8.4-.2.3-.3.6-.3 1 0 .9.5 1.9 1.5 2.8m20-9.6c-1.7 0-3.2.4-4.4 1.2l-.9.5C42.1 1 41 .6 39.5.6c-1.4 0-2.6.2-3.6.7l-1.5.7v.2C33.1.8 31.3 0 29 0c-1.9 0-3.7.6-5 1.8-1.6 1.3-2.4 3.1-2.4 5.2 0 1.7.6 4.1 3 6.5l-.9 6.9c-.1.5-.1.8-.1 1.1 0 2.1.7 4 2 5.4.9 1 2.7 2.2 5.5 2.2 1.9 0 3.5-.4 4.9-1.3 1.2.8 2.8 1.3 4.5 1.3 3.6 0 5.8-1.6 7-3 .7-.8 1.2-1.6 1.7-2.4 1.1-2 1.9-4.9 2.5-8.8.7-4.4 1-7.6 1-9.9.2-3.5-2.2-5-4.5-5z"/><path class="st0" d="M57 27.7c-2.4 0-4.4-.8-5.9-2.3-1.5-1.6-2.3-3.7-2.3-6.1 0-2.5.9-4.7 2.8-6.5 1.9-1.9 4.1-2.8 6.7-2.8 1.9 0 3.4.4 4.6 1.3 1.4.9 2.1 2.3 2.1 3.9 0 .4 0 .8-.1 1.1l.5-1 1.5 1.4c.5.5 1 1.2 1.5 1.9l.4.7-.4.6c-.8 1.7-2.1 3.4-3.9 5-1 .8-2.1 1.5-3.4 2-1.3.5-2.7.8-4.1.8zm1.1-12.4c-.2 0-.6 0-1.2.9-.3.4-.5.9-.7 1.5.7-.2 1.3-.5 1.6-.9.3-.3.6-.8.6-1.2v-.2c-.1-.1-.2-.1-.3-.1z"/><path class="st1" d="M58.3 11.5c1.5 0 2.8.3 3.8 1s1.5 1.6 1.5 2.7c0 1.5-.6 2.8-1.9 3.8-1.2 1-2.9 1.6-5.1 2l-.4-1.8c1.2-.3 2.2-.8 2.8-1.5s.9-1.5.9-2.2-.2-1.2-.6-1.4c-.4-.3-.8-.4-1.2-.4-.9 0-1.8.5-2.5 1.6s-1.1 2.3-1.1 3.8.3 2.5 1 3.3c.7.7 1.6 1.1 2.6 1.1 1.5 0 3-.5 4.3-1.6 1.4-1 2.5-2.4 3.4-4.1.4.4.8.9 1.2 1.6-.7 1.5-1.8 3-3.5 4.4-.8.7-1.8 1.3-3 1.7-1.2.4-2.3.7-3.6.7-2 0-3.6-.6-4.8-1.8-1.2-1.3-1.9-3-1.9-5.1s.8-3.9 2.3-5.4c1.7-1.7 3.6-2.4 5.8-2.4m0-3c-3 0-5.6 1.1-7.7 3.2-2.1 2.1-3.2 4.7-3.2 7.6 0 2.8.9 5.3 2.7 7.2 1.7 1.8 4.1 2.8 7 2.8 1.6 0 3.2-.3 4.6-.9 1.5-.6 2.8-1.3 3.8-2.2 2.1-1.8 3.5-3.6 4.4-5.5l.6-1.4-.8-1.3c-.5-.9-1.1-1.6-1.7-2.2l-1.6-1.6c-.3-1.7-1.2-3.2-2.6-4.2-1.5-1-3.4-1.5-5.5-1.5z"/><path class="st0" d="M77 27.7c-2 0-3.8-.7-5.2-2.1-1.4-1.4-2.1-3.2-2.1-5.4 0-3 .9-5.5 2.8-7.4 1.7-1.9 4.1-2.8 6.8-2.8h.2c.9 0 1.8.1 2.7.4.6-.3 1.3-.4 2.1-.4 1.1 0 1.8.2 2.4.5l.9.5-.2 1c-.2 1.5-.4 3-.6 4.4s-.3 2.4-.4 3.1c-.1.8-.2 1.4-.2 1.8.3-.4.7-1.1 1-2.5l.7-2.3 1.8 1.6c.8.7 1.3 1.5 1.6 2.4l.2.5-.1.4c-.7 2.2-1.6 3.8-2.9 4.8-1.3 1-2.5 1.5-3.9 1.5-1.8 0-3-.5-3.8-1.2-1.1.7-2.4 1.2-3.8 1.2zm2.8-12.4c-.8 0-1.4.3-1.9.9-.6.7-.9 1.9-1 3.5v.4c0 .6.1 1.1.4 1.4.2.2.4.3.7.3.2 0 .8 0 1.4-1.5l.4-5z"/><path class="st1" d="M84.3 11.5c.8 0 1.3.1 1.7.3-.2 1.5-.4 3-.6 4.4s-.3 2.5-.4 3.1c-.2 1.4-.3 2.4-.3 3 0 .8.3 1.2 1 1.2.5 0 1-.3 1.6-1s1.1-1.7 1.5-3.2c.6.5 1 1.1 1.2 1.7-.6 1.9-1.4 3.3-2.4 4-1 .8-2 1.2-2.9 1.2-1.9 0-3.1-.6-3.7-1.9-1 1.3-2.4 2-4 2s-3-.6-4.1-1.7-1.7-2.6-1.7-4.4c0-2.6.8-4.7 2.3-6.3s3.5-2.4 5.9-2.4h.2c1 0 1.9.2 2.8.5.4-.4 1.1-.5 1.9-.5m-6.4 11.9c1.3 0 2.2-.9 2.9-2.7l.7-6.5c-.6-.2-1.1-.4-1.7-.4-1.3 0-2.3.5-3.1 1.5-.8 1-1.2 2.4-1.3 4.4v.5c0 1 .2 1.8.7 2.4.4.5 1.1.8 1.8.8m6.4-14.9c-.8 0-1.5.1-2.1.3-.8-.2-1.7-.3-2.6-.3h-.2c-3.2 0-5.9 1.1-8 3.2s-3.2 5-3.2 8.4c0 2.6.9 4.8 2.6 6.5s3.8 2.5 6.2 2.5c1.4 0 2.7-.3 3.8-.9 1 .5 2.2.9 3.9.9 1.6 0 3.3-.6 4.8-1.8 1.5-1.2 2.6-3 3.4-5.5l.3-.9-.4-.9c-.4-1.1-1.1-2.1-2-3l-2.2-2c.1-1 .3-1.9.4-2.9l.2-2-1.7-1c-.9-.4-1.9-.6-3.2-.6z"/><g><path class="st0" d="M92.2 27.7c-2.2 0-3.5-1-4.1-1.8-.8-1.1-1.2-2.4-1.2-4v-1l1.2-10.2.9-.3c.9-.3 1.8-.4 2.7-.4 1 0 1.8.3 2.3.6.8-.4 1.7-.6 2.6-.6 1.3 0 2.3.3 3.1 1 .9.7 1.3 1.7 1.3 2.8s-.5 2.1-1.3 2.8c-.7.6-1.5.9-2.5 1 .7 1.2 1.1 2.5 1.1 3.9 0 2-.6 3.5-1.8 4.6-1.2 1-2.6 1.6-4.3 1.6z"/><path class="st1" d="M96.6 11.5c.9 0 1.6.2 2.1.6.5.4.8 1 .8 1.6 0 .7-.3 1.2-.8 1.7-.5.4-1.2.6-2 .6h-.1c0-.2.1-.4.1-.6 0-.9-.4-1.3-1.2-1.3-.8 0-1.5.5-1.9 1.6 2.2 1.7 3.3 3.6 3.3 5.8 0 1.5-.4 2.7-1.3 3.5s-2 1.2-3.3 1.2-2.3-.4-2.9-1.2c-.6-.8-.9-1.8-.9-3.1v-.8l1.1-9.2c.7-.2 1.5-.3 2.2-.3 1.2 0 1.8.5 1.8 1.4v.1c.8-1.2 1.8-1.6 3-1.6m-3.1 11.9c.9 0 1.3-.7 1.3-2.1 0-1.2-.6-2.3-1.8-3.5-.4 2.9-.5 4.4-.5 4.4-.1.8.3 1.2 1 1.2m3.1-14.9c-.9 0-1.8.2-2.6.5-.7-.3-1.4-.5-2.4-.5s-2.1.2-3.1.5l-1.9.6-.2 2-1.1 9.2V22c0 1.9.5 3.5 1.5 4.9.8 1.1 2.4 2.4 5.3 2.4 2.1 0 3.9-.7 5.3-2 1-1 2.3-2.7 2.3-5.7 0-1-.2-2-.5-2.9.5-.2 1-.5 1.4-.8 1.2-1 1.8-2.4 1.8-4s-.7-3-1.8-4c-1-1-2.4-1.4-4-1.4z"/></g><g><path class="st0" d="M106.6 27.7c-2.4 0-4.4-.8-5.9-2.3-1.5-1.6-2.3-3.7-2.3-6.1 0-2.5.9-4.7 2.8-6.5 1.8-1.8 4.1-2.8 6.7-2.8 1.9 0 3.4.4 4.6 1.3 1.4.9 2.1 2.3 2.1 3.9 0 .4 0 .8-.1 1.1l.5-1 1.5 1.4c.5.5 1 1.2 1.5 1.9l.4.7-.3.7c-.8 1.7-2.1 3.4-3.9 5-1 .8-2.1 1.5-3.4 2-1.4.4-2.8.7-4.2.7zm1.1-12.4c-.2 0-.6 0-1.2.9-.3.4-.5.9-.7 1.5.7-.2 1.3-.5 1.6-.9.3-.3.6-.8.6-1.2v-.2c-.1-.1-.2-.1-.3-.1z"/><path class="st1" d="M107.9 11.5c1.5 0 2.8.3 3.8 1s1.5 1.6 1.5 2.7c0 1.5-.6 2.8-1.9 3.8s-2.9 1.6-5.1 2l-.4-1.8c1.2-.3 2.2-.8 2.8-1.5.6-.7.9-1.5.9-2.2s-.2-1.2-.6-1.4c-.4-.3-.8-.4-1.2-.4-.9 0-1.8.5-2.5 1.6s-1.1 2.3-1.1 3.8.3 2.5 1 3.3c.7.7 1.6 1.1 2.6 1.1 1.5 0 3-.5 4.3-1.6 1.4-1 2.5-2.4 3.4-4.1.4.4.8.9 1.2 1.6-.7 1.5-1.8 3-3.5 4.4-.8.7-1.8 1.3-3 1.7-1.2.4-2.3.7-3.6.7-2 0-3.6-.6-4.8-1.8-1.2-1.3-1.9-3-1.9-5.1s.8-3.9 2.3-5.4c1.8-1.7 3.6-2.4 5.8-2.4m0-3c-3 0-5.6 1.1-7.7 3.2S97 16.4 97 19.3c0 2.8.9 5.3 2.7 7.2 1.7 1.8 4.1 2.8 7 2.8 1.6 0 3.2-.3 4.6-.9 1.5-.6 2.8-1.3 3.8-2.2 2.1-1.8 3.5-3.6 4.4-5.5l.6-1.4-.8-1.3c-.5-.9-1.1-1.6-1.7-2.2l-1.5-1.5c-.3-1.8-1.2-3.3-2.7-4.3s-3.3-1.5-5.5-1.5z"/></g><g><path class="st0" d="M29.4 67.2c-3.1 0-5.4-1-7-3-1.5-1.9-2.2-3.9-2.2-6v-.1l1.5-13.9c0-.8-.2-1.4-.6-1.8-.1-.1-.4-.6-1.7-.6-.9 0-1.6.3-2.2 1-.7.8-1.3 2-1.6 3.4-.3 2.4-.7 5.9-1.3 10.4-.6 4.6-1 7.6-1.1 9l-.1 1.4H1.7l.2-1.7C5 39.2 6.8 23.7 7.4 17.8l.1-.9.9-.3c1-.4 2.4-.6 4.1-.6 5.6 0 6.4 2.8 6.4 4.4v.6c-.6 5.1-1.1 9.8-1.8 14 1.7-.9 3.6-1.3 5.6-1.3 3.2 0 5.8.8 7.7 2.5 2 1.7 3 3.9 3 6.6 0 .7-.1 1.8-.4 3.5-1.2 7.7-1.4 10.2-1.4 10.9 0 1.2.3 1.4.3 1.4h.2c.6 0 1.5-.6 2.4-1.6 1.1-1.3 2-3.3 2.7-6.1l.7-2.7 1.9 2c1.6 1.7 2.5 3 2.9 4.1l.1.5-.1.5c-2.6 7.9-7 11.9-13.3 11.9z"/><path class="st1" d="M12.5 17.5c3.3 0 4.9 1 4.9 2.9v.4c-.7 6.6-1.5 12.4-2.3 17.4 2.2-2 4.7-3 7.6-3 2.8 0 5 .7 6.7 2.1 1.6 1.4 2.5 3.2 2.5 5.4 0 .6-.1 1.7-.4 3.3-1 6.3-1.5 10-1.5 11.1 0 2 .7 3 2 3 1.1 0 2.3-.7 3.5-2.2s2.2-3.7 3-6.7c1.4 1.5 2.3 2.7 2.6 3.6-2.2 7.3-6.1 11-11.6 11-2.6 0-4.5-.8-5.8-2.4-1.3-1.6-1.9-3.3-1.9-5l1.5-13.9c0-1.1-.3-2.1-.9-2.8-.6-.8-1.5-1.1-2.8-1.1s-2.4.5-3.3 1.5-1.6 2.4-2 4.1c-.3 2.4-.7 5.9-1.3 10.5s-1 7.6-1.1 9H3.4c3-26 4.9-41.8 5.5-47.7.9-.3 2.1-.5 3.6-.5m0-3c-1.9 0-3.4.2-4.7.7l-1.7.7-.2 1.8C5.3 23.5 3.5 39.1.4 65.1L0 68.4h14.4l.3-2.6c.2-1.4.5-4.4 1.1-9 .6-4.5 1-7.9 1.3-10.3.3-1.1.7-2 1.3-2.6.4-.4.7-.5 1.1-.5.3 0 .4 0 .5.1s.2.3.2.8L18.8 58v.4c0 2.4.9 4.8 2.5 6.9 1.3 1.6 3.7 3.5 8.2 3.5 4.8 0 11.2-2.3 14.5-13.1l.3-.9-.3-.9c-.6-1.4-1.6-2.9-3.4-4.8l-3.8-4-1.3 5.3c-.8 3.2-1.7 4.7-2.4 5.5l-.1.1c.1-1.3.5-4 1.3-9.6.4-2.3.4-3.3.4-3.7 0-3-1.2-5.7-3.5-7.7-2.2-1.9-5.1-2.9-8.7-2.9-1.3 0-2.5.2-3.7.5.5-3.5 1-7.4 1.4-11.5v-.8c.2-1.3-.4-5.8-7.7-5.8z"/><path class="st0" d="M49.3 67.4c-4.6 0-8.3-1.5-11.1-4.3-2.9-3.1-4.3-7-4.3-11.7s1.8-8.9 5.3-12.4S47 33.7 52 33.7c3.5 0 6.5.8 8.7 2.4 2.4 1.7 3.7 4 3.7 6.9 0 3.7-1.5 6.8-4.5 9.1-2.8 2.2-6.6 3.7-11.3 4.5l-1.2.2.1.1c1.2 1.2 2.6 1.8 4.3 1.8 2.8 0 5.6-1 8.2-3 2.7-2 4.9-4.8 6.6-8.1l.9-1.8 1.5 1.4c1 1 2 2.2 2.8 3.6l.4.7-.3.7c-1.5 3.3-4.1 6.6-7.8 9.8-1.9 1.6-4.2 2.9-6.7 3.9-2.7 1-5.4 1.5-8.1 1.5zm2.3-26c-1.5 0-2.8.9-4 2.7-1.3 1.9-2 4.3-2 7 0 2.6.6 4.5 1.7 5.7l-1.6-6.6 1.5-.3c2.3-.5 3.9-1.4 5-2.6 1-1.3 1.6-2.5 1.6-3.6 0-.5-.1-1.4-.5-1.7-.5-.4-1-.6-1.7-.6z"/><path class="st1" d="M52 35.2c3.2 0 5.9.7 7.9 2.1 2 1.4 3 3.3 3.1 5.7 0 3.2-1.3 5.9-3.9 7.9-2.6 2-6.1 3.4-10.6 4.2l-.9-3.7c2.6-.5 4.5-1.6 5.8-3.2 1.3-1.6 1.9-3.1 1.9-4.5 0-1.5-.4-2.4-1.2-3-.8-.5-1.6-.8-2.6-.8-2 0-3.7 1.1-5.2 3.3s-2.2 4.8-2.2 7.9.7 5.3 2.2 6.8 3.2 2.2 5.4 2.2c3.2 0 6.2-1.1 9.1-3.3s5.3-5 7.1-8.6c.9.9 1.8 2 2.5 3.3-1.4 3.2-3.8 6.2-7.4 9.3-1.8 1.5-3.9 2.7-6.3 3.6-2.4.9-4.9 1.4-7.5 1.4-4.2 0-7.5-1.3-10-3.8-2.6-2.8-3.9-6.3-3.9-10.7s1.6-8.1 4.9-11.4c3.4-3.1 7.3-4.7 11.8-4.7m0-3c-5.3 0-10 1.9-13.8 5.7-3.8 3.8-5.8 8.3-5.8 13.5 0 5.1 1.6 9.4 4.7 12.7 3 3.2 7.1 4.8 12.2 4.8 2.9 0 5.8-.5 8.5-1.6 2.7-1 5.1-2.4 7.1-4.1 3.9-3.3 6.6-6.8 8.2-10.4l.6-1.4-.8-1.3c-.9-1.5-1.9-2.9-3-3.9L67 43.4l-1.5 2.9c.3-1.1.4-2.2.4-3.3-.1-3.4-1.6-6.2-4.4-8.1-2.4-1.9-5.6-2.7-9.5-2.7zm-4.5 16.1c.3-1.2.8-2.4 1.4-3.4 1.3-2 2.4-2 2.7-2 .2 0 .5 0 .7.2v.6c0 .9-.7 1.9-1.2 2.6-.7.9-2 1.6-3.6 2zm5.5 8.8c2.2-.7 4.2-1.5 6-2.5-2 1.5-4 2.3-6 2.5z"/><path class="st0" d="M74.5 67.4c-3.2 0-5.6-1.1-7.2-3.2-1.5-2-2.2-4.4-2.2-7.4 0-.9 0-1.5.1-1.9l2.3-20.2.9-.3c1.7-.5 3.4-.8 5-.8 2.5 0 3.8.8 4.6 1.8 1.6-1.2 3.6-1.8 5.7-1.8 2.2 0 4 .5 5.4 1.6s2.1 2.7 2.1 4.6c0 1.9-.7 3.5-2.1 4.6-1.3 1.1-3.1 1.7-5.2 1.7h-2l.3-1.8c.1-.4.1-.7.1-1.1 0-1.2-.4-1.3-1.1-1.3-.3 0-1.2 0-2.2 1.4 4.2 3.7 6.4 7.8 6.4 12.4 0 3.7-1.1 6.5-3.2 8.5-1.9 2.2-4.6 3.2-7.7 3.2zm2-9.8c0 1.1.3 1.1.6 1.1s1.3 0 1.3-3c0-1.2-.4-2.5-1.2-3.7-.3 2.6-.6 5.1-.7 5.6z"/><path class="st1" d="M83.8 35.2c1.9 0 3.4.4 4.4 1.3 1.1.9 1.6 2 1.6 3.4s-.5 2.6-1.6 3.5-2.5 1.4-4.2 1.4h-.3c.1-.5.1-.9.1-1.3 0-1.9-.9-2.8-2.6-2.8s-3.1 1.1-4.1 3.3c4.5 3.6 6.8 7.6 6.8 12 0 3.2-.9 5.7-2.7 7.4-1.8 1.7-4.1 2.5-6.8 2.5s-4.7-.9-6-2.6c-1.3-1.7-1.9-3.9-1.9-6.5 0-.8 0-1.4.1-1.8l2.2-19.2c1.5-.5 3-.7 4.6-.7 2.6 0 3.8.9 3.8 2.8v.1c1.9-1.9 4-2.8 6.6-2.8m-6.6 24.9c1.8 0 2.8-1.5 2.8-4.5 0-2.4-1.3-4.9-3.8-7.3-.8 6.1-1.1 9.1-1.1 9.1-.1 1.8.7 2.7 2.1 2.7m6.6-27.9c-2 0-3.9.5-5.5 1.4-1.1-.8-2.6-1.4-4.8-1.4-1.8 0-3.7.3-5.5.8l-1.9.6-.2 2-2.2 19.2c-.1.5-.1 1.2-.1 2.1 0 3.3.8 6 2.5 8.2 1.3 1.7 3.8 3.8 8.4 3.8 3.5 0 6.5-1.1 8.9-3.3 2.4-2.3 3.7-5.5 3.7-9.6 0-2.9-.8-5.7-2.3-8.2 2.1-.1 3.9-.8 5.4-2 1.7-1.5 2.7-3.5 2.7-5.8s-.9-4.3-2.7-5.8c-1.7-1.4-3.8-2-6.4-2z"/><g><path class="st0" d="M104.7 67.4c-4.6 0-8.3-1.5-11.1-4.3-2.9-3.1-4.3-7-4.3-11.7s1.8-8.9 5.3-12.4 7.8-5.3 12.8-5.3c3.5 0 6.5.8 8.7 2.4 2.4 1.7 3.7 4 3.7 6.9 0 3.7-1.5 6.8-4.5 9.1-2.8 2.2-6.6 3.7-11.3 4.5l-1.4.2.1.1c1.2 1.2 2.6 1.8 4.3 1.8 2.8 0 5.6-1 8.2-3 2.7-2 4.9-4.8 6.6-8.1l.9-1.8 1.5 1.4c1 1 2 2.2 2.8 3.6l.4.7-.3.7c-1.5 3.3-4.1 6.6-7.8 9.8-1.9 1.6-4.2 2.9-6.7 3.9s-5.2 1.5-7.9 1.5zm2.3-26c-1.5 0-2.8.9-4 2.7-1.3 1.9-2 4.3-2 7 0 2.6.6 4.5 1.7 5.7l-1.6-6.6 1.5-.3c2.3-.5 3.9-1.4 5-2.6 1-1.3 1.6-2.5 1.6-3.6 0-.5-.1-1.4-.5-1.7-.5-.4-1.1-.6-1.7-.6z"/><path class="st1" d="M107.4 35.2c3.2 0 5.9.7 7.9 2.1 2 1.4 3 3.3 3.1 5.7 0 3.2-1.3 5.9-3.9 7.9s-6.1 3.4-10.6 4.2l-.9-3.7c2.6-.5 4.5-1.6 5.8-3.2 1.3-1.6 1.9-3.1 1.9-4.5 0-1.5-.4-2.4-1.2-3-.8-.5-1.6-.8-2.6-.8-2 0-3.7 1.1-5.2 3.3s-2.2 4.8-2.2 7.9.7 5.3 2.2 6.8 3.2 2.2 5.4 2.2c3.2 0 6.2-1.1 9.1-3.3s5.3-5 7.1-8.6c.9.9 1.8 2 2.5 3.3-1.4 3.2-3.8 6.2-7.4 9.3-1.8 1.5-3.9 2.7-6.3 3.6-2.4.9-4.9 1.4-7.5 1.4-4.2 0-7.5-1.3-10-3.8-2.6-2.8-3.9-6.3-3.9-10.7s1.7-8.1 5-11.3c3.2-3.2 7.1-4.8 11.7-4.8m0-3c-5.3 0-10 1.9-13.8 5.7-3.8 3.8-5.8 8.3-5.8 13.5 0 5.1 1.6 9.4 4.7 12.7 3 3.2 7.1 4.8 12.1 4.8 2.9 0 5.8-.5 8.5-1.6 2.7-1 5.1-2.4 7.1-4.1 3.9-3.3 6.6-6.8 8.2-10.4l.6-1.4-.8-1.3c-.9-1.5-1.9-2.9-3-3.9l-2.9-2.8-1.5 2.9c.3-1.1.4-2.2.4-3.3-.1-3.4-1.6-6.2-4.4-8.1-2.3-1.9-5.6-2.7-9.4-2.7zm-4.5 16.1c.3-1.2.8-2.4 1.4-3.4 1.3-2 2.4-2 2.7-2 .2 0 .5 0 .7.2v.6c0 .9-.7 1.9-1.2 2.6-.8.9-2 1.6-3.6 2zm5.4 8.8c2.2-.7 4.2-1.5 6-2.5-2 1.5-3.9 2.3-6 2.5z"/></g><g><path class="st0" d="M126.1 68.2c-1.8 0-3.4-.6-4.7-1.9-1.3-1.3-1.9-2.8-1.9-4.7 0-1.8.6-3.4 1.9-4.7s2.9-2 4.7-2c1.8 0 3.4.7 4.7 2 1.3 1.3 2 2.9 2 4.7s-.7 3.4-2 4.7c-1.3 1.2-2.9 1.9-4.7 1.9zm-3.4-17.7l4.3-38.4.7-.4c1.1-.5 2.7-.8 5.1-.8 5.1 0 7.7 1.5 7.7 4.4 0 .3 0 .5-.1.9l-8.1 34.3h-9.6z"/><path class="st1" d="M132.8 12.4c4.1 0 6.2 1 6.2 2.9 0 .2 0 .4-.1.6l-7.8 33h-6.7l4-35.9c.8-.3 2.3-.6 4.4-.6m-6.7 44c1.4 0 2.6.5 3.7 1.5 1 1 1.5 2.2 1.5 3.7 0 1.4-.5 2.6-1.5 3.6s-2.2 1.5-3.7 1.5c-1.4 0-2.6-.5-3.6-1.5S121 63 121 61.6s.5-2.6 1.5-3.7c1-1 2.2-1.5 3.6-1.5m6.7-47c-2.6 0-4.5.3-5.8.9l-1.5.7-.1 1.7-4 35.9-.4 3.3h12.5l.5-2.3 7.8-33v-.2c.1-.4.1-.8.1-1.1.1-2.2-1.1-5.9-9.1-5.9zm-6.7 44c-2.2 0-4.2.8-5.8 2.4-1.5 1.6-2.3 3.6-2.3 5.8s.8 4.2 2.4 5.8c1.5 1.5 3.5 2.4 5.7 2.4s4.2-.8 5.8-2.3c1.6-1.5 2.4-3.5 2.4-5.8 0-2.2-.8-4.2-2.4-5.8-1.6-1.7-3.6-2.5-5.8-2.5z"/></g></g></svg>